<?xml version="1.0" encoding="UTF-8" standalone="no"?>
<svg width="0" height="0" viewBox="0 0 11.7 5.5">
    <defs>
        <g stroke="none" stroke-width="1" fill="none" fill-rule="evenodd">
        <path d="M11.5044643,2.85491071 L8.93303571,5.22544643 C8.86160679,5.28794674 8.78348257,5.30133946 8.69866071,5.265625 C8.61383886,5.22544623 8.57142857,5.16071473 8.57142857,5.07142857 L8.57142857,3.57142857 L0.214285714,3.57142857 C0.151785402,3.57142857 0.100446629,3.55133949 0.0602678571,3.51116071 C0.0200890848,3.47098194 0,3.41964317 0,3.35714286 L0,2.07142857 C0,2.00892826 0.0200890848,1.95758949 0.0602678571,1.91741071 C0.100446629,1.87723194 0.151785402,1.85714286 0.214285714,1.85714286 L8.57142857,1.85714286 L8.57142857,0.357142857 C8.57142857,0.263392388 8.61383886,0.198660893 8.69866071,0.162946429 C8.78348257,0.127231964 8.86160679,0.138392567 8.93303571,0.196428571 L11.5044643,2.54017857 C11.5491074,2.58482165 11.5714286,2.63616042 11.5714286,2.69419643 C11.5714286,2.75669674 11.5491074,2.81026763 11.5044643,2.85491071 Z" id="arrow" fill="white"></path>
    </g>
    </defs>

</svg>