<svg width="16px" height="28px" viewBox="0 0 16 28">
    <defs></defs>
    <g stroke="none" stroke-width="1" fill="none" fill-rule="evenodd">
        <path d="M15.6696429,15.1875 L3.1875,27.6696429 C3.00892768,27.8482152 2.80357259,27.9375 2.57142857,27.9375 C2.33928455,27.9375 2.13392946,27.8482152 1.95535714,27.6696429 L0.616071429,26.3303571 C0.437499107,26.1517848 0.348214286,25.9464297 0.348214286,25.7142857 C0.348214286,25.4821417 0.437499107,25.2767866 0.616071429,25.0982143 L11.1428571,14.5714286 L0.616071429,4.04464286 C0.437499107,3.86607054 0.348214286,3.66071545 0.348214286,3.42857143 C0.348214286,3.19642741 0.437499107,2.99107232 0.616071429,2.8125 L1.95535714,1.47321429 C2.13392946,1.29464196 2.33928455,1.20535714 2.57142857,1.20535714 C2.80357259,1.20535714 3.00892768,1.29464196 3.1875,1.47321429 L15.6696429,13.9553571 C15.8482152,14.1339295 15.9375,14.3392846 15.9375,14.5714286 C15.9375,14.8035726 15.8482152,15.0089277 15.6696429,15.1875 Z" id="chevron" class="chevron" fill="#4094AA"></path>
    </g>
</svg>