<svg width="8px" height="8px" viewBox="0 0 8 8">
    <defs>
    <g stroke="none" stroke-width="1" fill="none" fill-rule="evenodd">
        <path d="M7.76785714,6.85714286 L6.85714286,7.76785714 C6.73214223,7.89285777 6.58035804,7.95535714 6.40178571,7.95535714 C6.22321339,7.95535714 6.0714292,7.89285777 5.94642857,7.76785714 L3.97767857,5.79910714 L2.00892857,7.76785714 C1.88392795,7.89285777 1.73214375,7.95535714 1.55357143,7.95535714 C1.37499911,7.95535714 1.22321491,7.89285777 1.09821429,7.76785714 L0.1875,6.85714286 C0.062499375,6.73214223 0,6.58035804 0,6.40178571 C0,6.22321339 0.062499375,6.0714292 0.1875,5.94642857 L2.15625,3.97767857 L0.1875,2.00892857 C0.062499375,1.88392795 0,1.73214375 0,1.55357143 C0,1.37499911 0.062499375,1.22321491 0.1875,1.09821429 L1.09821429,0.1875 C1.22321491,0.062499375 1.37499911,0 1.55357143,0 C1.73214375,0 1.88392795,0.062499375 2.00892857,0.1875 L3.97767857,2.15625 L5.94642857,0.1875 C6.0714292,0.062499375 6.22321339,0 6.40178571,0 C6.58035804,0 6.73214223,0.062499375 6.85714286,0.1875 L7.76785714,1.09821429 C7.89285777,1.22321491 7.95535714,1.37499911 7.95535714,1.55357143 C7.95535714,1.73214375 7.89285777,1.88392795 7.76785714,2.00892857 L5.79910714,3.97767857 L7.76785714,5.94642857 C7.89285777,6.0714292 7.95535714,6.22321339 7.95535714,6.40178571 C7.95535714,6.58035804 7.89285777,6.73214223 7.76785714,6.85714286 Z" id="close-box" class="close-box" fill="#000000"></path>
    </g>
    
    </defs>
    
</svg>