<?xml version="1.0" encoding="UTF-8" standalone="no"?>
<svg width="78px" height="58px" viewBox="0 0 78 58">
    <defs></defs>
    <g id="Page-1" stroke="none" stroke-width="1" fill="none" fill-rule="evenodd">
        <path d="M25.7901786,45.4955357 L23.78125,47.5044643 C23.5133915,47.7723228 23.2053589,47.90625 22.8571429,47.90625 C22.5089268,47.90625 22.2008942,47.7723228 21.9330357,47.5044643 L3.20982143,28.78125 C2.94196295,28.5133915 2.80803571,28.2053589 2.80803571,27.8571429 C2.80803571,27.5089268 2.94196295,27.2008942 3.20982143,26.9330357 L21.9330357,8.20982143 C22.2008942,7.94196295 22.5089268,7.80803571 22.8571429,7.80803571 C23.2053589,7.80803571 23.5133915,7.94196295 23.78125,8.20982143 L25.7901786,10.21875 C26.0580371,10.4866085 26.1919643,10.7946411 26.1919643,11.1428571 C26.1919643,11.4910732 26.0580371,11.7991058 25.7901786,12.0669643 L10,27.8571429 L25.7901786,43.6473214 C26.0580371,43.9151799 26.1919643,44.2232125 26.1919643,44.5714286 C26.1919643,44.9196446 26.0580371,45.2276772 25.7901786,45.4955357 Z M49.5357143,2.625 L34.5491071,54.4955357 C34.4419638,54.8437517 34.2343765,55.1049098 33.9263393,55.2790179 C33.618302,55.4531259 33.303573,55.4866077 32.9821429,55.3794643 L30.4910714,54.6964286 C30.1428554,54.5892852 29.8816973,54.381698 29.7075893,54.0736607 C29.5334813,53.7656235 29.4999995,53.4375017 29.6071429,53.0892857 L44.59375,1.21875 C44.7008934,0.870533973 44.9084806,0.609375871 45.2165179,0.435267857 C45.5245551,0.261159844 45.8392841,0.227678036 46.1607143,0.334821429 L48.6517857,1.01785714 C49.0000017,1.12500054 49.2611598,1.33258775 49.4352679,1.640625 C49.6093759,1.94866225 49.6428577,2.27678397 49.5357143,2.625 Z M75.9330357,28.78125 L57.2098214,47.5044643 C56.9419629,47.7723228 56.6339303,47.90625 56.2857143,47.90625 C55.9374983,47.90625 55.6294656,47.7723228 55.3616071,47.5044643 L53.3526786,45.4955357 C53.0848201,45.2276772 52.9508929,44.9196446 52.9508929,44.5714286 C52.9508929,44.2232125 53.0848201,43.9151799 53.3526786,43.6473214 L69.1428571,27.8571429 L53.3526786,12.0669643 C53.0848201,11.7991058 52.9508929,11.4910732 52.9508929,11.1428571 C52.9508929,10.7946411 53.0848201,10.4866085 53.3526786,10.21875 L55.3616071,8.20982143 C55.6294656,7.94196295 55.9374983,7.80803571 56.2857143,7.80803571 C56.6339303,7.80803571 56.9419629,7.94196295 57.2098214,8.20982143 L75.9330357,26.9330357 C76.2008942,27.2008942 76.3348214,27.5089268 76.3348214,27.8571429 C76.3348214,28.2053589 76.2008942,28.5133915 75.9330357,28.78125 Z" id="code" fill="#4094AA"></path>
    </g>
</svg>