<svg width="18px" height="18px" viewBox="0 0 18 18">
    <defs></defs>
    <g stroke="none" stroke-width="1" fill="none" fill-rule="evenodd">
        <path d="M10.9302455,5.89805825 L13.9419643,5.89805825 L13.5904018,9 L10.9302455,9 L10.9302455,18 L6.93415179,18 L6.93415179,9 L4.94196429,9 L4.94196429,5.89805825 L6.93415179,5.89805825 L6.93415179,4.03033981 C6.93415179,2.70509046 7.27008593,1.70206651 7.94196429,1.02123786 C8.61384265,0.340409217 9.71930034,-3.90798505e-14 11.2583705,-3.90798505e-14 L13.9185268,-3.90798505e-14 L13.9185268,3.10194175 L12.2544643,3.10194175 C11.9497753,3.10194175 11.7056371,3.12560656 11.5220424,3.17293689 C11.3384477,3.22026723 11.2056366,3.30582462 11.1236049,3.42961165 C11.0415733,3.55339868 10.9888394,3.67900422 10.9654018,3.80643204 C10.9419642,3.93385986 10.9302455,4.1140765 10.9302455,4.34708738 L10.9302455,5.89805825 Z" id="facebook" class="facebook" fill="#4094AA"></path>
    </g>
</svg>