<svg width="20px" height="18px" viewBox="0 0 20 18">
    <defs></defs>
    <g stroke="none" stroke-width="1" fill="none" fill-rule="evenodd">
        <path d="M19.5,9.22540621 C19.5,11.2354657 18.8959479,13.0432909 17.6878255,14.648936 C16.4797032,16.2545812 14.9190634,17.365703 13.0058594,17.9823348 C12.783202,18.0223758 12.6203347,17.9943475 12.5172526,17.898249 C12.4141705,17.8021506 12.3626302,17.6820293 12.3626302,17.5378816 L12.3626302,15.0032973 C12.3626302,14.2265014 12.1482226,13.6579274 11.719401,13.2975582 C12.1894555,13.2495089 12.6120858,13.1774362 12.9873047,13.0813377 C13.3625236,12.9852392 13.7501065,12.8290816 14.1500651,12.61286 C14.5500237,12.3966385 14.8840047,12.1303697 15.1520182,11.8140456 C15.4200317,11.4977215 15.6385625,11.077297 15.8076172,10.5527596 C15.9766719,10.0282221 16.0611979,9.42561374 16.0611979,8.7449163 C16.0611979,7.77592348 15.7354633,6.95109072 15.0839844,6.27039328 C15.3891074,5.54164661 15.3561216,4.72482194 14.985026,3.81989476 C14.7541221,3.74782091 14.4201411,3.79186538 13.9830729,3.95202948 C13.5460048,4.11219358 13.1666683,4.28837146 12.8450521,4.48056838 L12.375,4.76886232 C11.6080691,4.56064899 10.8164103,4.45654388 10,4.45654388 C9.18358967,4.45654388 8.39193092,4.56064899 7.625,4.76886232 C7.4930549,4.68077207 7.31781793,4.57266292 7.09928385,4.44453164 C6.88074978,4.31640035 6.53646068,4.16224472 6.06640625,3.9820601 C5.59635182,3.80187548 5.24175467,3.74782091 5.00260417,3.81989476 C4.63975513,4.72482194 4.61089257,5.54164661 4.91601563,6.27039328 C4.26453667,6.95109072 3.93880208,7.77592348 3.93880208,8.7449163 C3.93880208,9.42561374 4.02332815,10.0262201 4.19238281,10.5467534 C4.36143748,11.0672868 4.57790667,11.4877112 4.84179688,11.8080395 C5.10568708,12.1283677 5.43760651,12.3966385 5.8375651,12.61286 C6.2375237,12.8290816 6.62510663,12.9852392 7.00032552,13.0813377 C7.37554441,13.1774362 7.79817473,13.2495089 8.26822917,13.2975582 C7.93836641,13.5858536 7.7363285,13.9982699 7.66210938,14.5348197 C7.48893143,14.6149017 7.30338641,14.6749624 7.10546875,14.7150034 C6.90755109,14.7550444 6.6725274,14.7750646 6.40039062,14.7750646 C6.12825385,14.7750646 5.85818276,14.6889777 5.59016927,14.5168013 C5.32215578,14.3446249 5.09331692,14.0943722 4.90364583,13.7660358 C4.74696102,13.5097733 4.54698472,13.301563 4.30371094,13.1413989 C4.06043715,12.9812348 3.85633763,12.8851378 3.69140625,12.853105 L3.44401042,12.8170683 C3.27083247,12.8170683 3.15125901,12.8350864 3.08528646,12.8711234 C3.01931391,12.9071603 2.99869779,12.9532068 3.0234375,13.0092642 C3.04817721,13.0653217 3.08528621,13.1213783 3.13476562,13.1774357 C3.18424504,13.2334931 3.23784693,13.2815416 3.29557292,13.3215827 L3.38216146,13.3816439 C3.56358598,13.4617259 3.74294616,13.6138796 3.9202474,13.8381093 C4.09754863,14.0623391 4.22743014,14.2665452 4.30989583,14.4507339 L4.43359375,14.7270156 C4.54079915,15.0313274 4.72222094,15.277576 4.97786458,15.4657689 C5.23350822,15.6539617 5.50976414,15.774083 5.80664062,15.8261363 C6.10351711,15.8781896 6.39008108,15.9062179 6.66634115,15.910222 C6.94260121,15.9142261 7.17144007,15.900212 7.35286458,15.8681792 L7.63736979,15.8201302 C7.63736979,16.124442 7.6394314,16.4808018 7.64355469,16.8892202 C7.64767797,17.2976387 7.64973958,17.513857 7.64973958,17.5378816 C7.64973958,17.6820293 7.59613769,17.8021506 7.48893229,17.898249 C7.38172689,17.9943475 7.21679799,18.0223758 6.99414063,17.9823348 C5.08093661,17.365703 3.52029684,16.2545812 2.31217448,14.648936 C1.10405212,13.0432909 0.5,11.2354657 0.5,9.22540621 C0.5,7.55169133 0.924691934,6.00813294 1.77408854,4.59468473 C2.62348515,3.18123652 3.77592588,2.06210664 5.23144531,1.23726151 C6.68696474,0.412416379 8.27646708,0 10,0 C11.7235329,0 13.3130353,0.412416379 14.7685547,1.23726151 C16.2240741,2.06210664 17.3765149,3.18123652 18.2259115,4.59468473 C19.0753081,6.00813294 19.5,7.55169133 19.5,9.22540621 L19.5,9.22540621 Z" id="github" class="github" fill="#4094AA"></path>
    </g>
</svg>