<svg width="20px" height="18px" viewBox="0 0 20 18" version="1.1" xmlns="http://www.w3.org/2000/svg" xmlns:xlink="http://www.w3.org/1999/xlink">
    <defs></defs>
    <g stroke="none" stroke-width="1" fill="none" fill-rule="evenodd">
        <path d="M19,2.75 L19,13.6785714 C19,14.1205379 18.8426355,14.4988824 18.5279018,14.8136161 C18.2131681,15.1283498 17.8348236,15.2857143 17.3928571,15.2857143 L2.60714286,15.2857143 C2.16517636,15.2857143 1.78683193,15.1283498 1.47209821,14.8136161 C1.1573645,14.4988824 1,14.1205379 1,13.6785714 L1,2.75 C1,2.3080335 1.1573645,1.92968907 1.47209821,1.61495536 C1.78683193,1.30022164 2.16517636,1.14285714 2.60714286,1.14285714 L17.3928571,1.14285714 C17.8348236,1.14285714 18.2131681,1.30022164 18.5279018,1.61495536 C18.8426355,1.92968907 19,2.3080335 19,2.75 Z M17.7142857,13.6785714 L17.7142857,5.96428571 C17.4999989,6.20535835 17.2689745,6.42633828 17.0212054,6.62723214 C15.2265535,8.00670333 13.8002285,9.13838844 12.7421875,10.0223214 C12.4006679,10.3102693 12.1227689,10.5345974 11.9084821,10.6953125 C11.6941954,10.8560276 11.4045777,11.0184144 11.0396205,11.1824777 C10.6746634,11.346541 10.3314748,11.4285714 10.0100446,11.4285714 L10,11.4285714 L9.98995536,11.4285714 C9.66852518,11.4285714 9.32533665,11.346541 8.96037946,11.1824777 C8.59542228,11.0184144 8.30580464,10.8560276 8.09151786,10.6953125 C7.87723107,10.5345974 7.59933206,10.3102693 7.2578125,10.0223214 C6.1997715,9.13838844 4.77344647,8.00670333 2.97879464,6.62723214 C2.73102555,6.42633828 2.50000107,6.20535835 2.28571429,5.96428571 L2.28571429,13.6785714 C2.28571429,13.7656254 2.317522,13.8409595 2.38113839,13.9045759 C2.44475478,13.9681923 2.52008885,14 2.60714286,14 L17.3928571,14 C17.4799111,14 17.5552452,13.9681923 17.6188616,13.9045759 C17.682478,13.8409595 17.7142857,13.7656254 17.7142857,13.6785714 Z M17.7142857,3.12165179 L17.7142857,3.01116071 L17.7142857,2.87555804 C17.7142857,2.84542396 17.7126116,2.80189761 17.7092634,2.74497768 C17.7059152,2.68805775 17.6958706,2.64620549 17.6791295,2.61941964 C17.6623883,2.59263379 17.6439733,2.56250017 17.6238839,2.52901786 C17.6037945,2.49553555 17.5736609,2.47042419 17.5334821,2.45368304 C17.4933034,2.43694188 17.4464288,2.42857143 17.3928571,2.42857143 L2.60714286,2.42857143 C2.52008885,2.42857143 2.44475478,2.46037915 2.38113839,2.52399554 C2.317522,2.58761193 2.28571429,2.66294599 2.28571429,2.75 C2.28571429,3.87500563 2.77789686,4.82588897 3.76227679,5.60267857 C5.05469396,6.6205408 6.39731446,7.68191412 7.79017857,8.78683036 C7.83035734,8.82031267 7.94754367,8.919084 8.14174107,9.08314732 C8.33593847,9.24721064 8.48995479,9.37276742 8.60379464,9.45982143 C8.7176345,9.54687544 8.86662854,9.65234313 9.05078125,9.77622768 C9.23493396,9.90011223 9.40401709,9.9921872 9.55803571,10.0524554 C9.71205434,10.1127235 9.85602612,10.1428571 9.98995536,10.1428571 L10,10.1428571 L10.0100446,10.1428571 C10.1439739,10.1428571 10.2879457,10.1127235 10.4419643,10.0524554 C10.5959829,9.9921872 10.765066,9.90011223 10.9492188,9.77622768 C11.1333715,9.65234313 11.2823655,9.54687544 11.3962054,9.45982143 C11.5100452,9.37276742 11.6640615,9.24721064 11.8582589,9.08314732 C12.0524563,8.919084 12.1696427,8.82031267 12.2098214,8.78683036 C13.6026855,7.68191412 14.945306,6.6205408 16.2377232,5.60267857 C16.5993322,5.3147307 16.9358243,4.92801582 17.2472098,4.44252232 C17.5585953,3.95702882 17.7142857,3.51674305 17.7142857,3.12165179 Z" id="mail" class="mail" fill="#4094AA"></path>
    </g>
</svg>