<?xml version="1.0" encoding="UTF-8" standalone="no"?>
<svg width="78px" height="58px" viewBox="0 0 78 58" version="1.1" xmlns="http://www.w3.org/2000/svg" xmlns:xlink="http://www.w3.org/1999/xlink" xmlns:sketch="http://www.bohemiancoding.com/sketch/ns">
    <title>Untitled 6</title>
    <description>Created with Sketch (http://www.bohemiancoding.com/sketch)</description>
    <defs></defs>
    <g id="Page-1" stroke="none" stroke-width="1" fill="none" fill-rule="evenodd" sketch:type="MSPage">
        <path d="M67.1083732,1.85154062 C67.1083732,7.75107992 66.2145074,12.8509064 64.4267489,17.151173 C62.6389905,21.4514396 59.6377325,25.7220259 55.4228848,29.9630602 C53.5048923,31.8584945 51.1962323,33.943441 48.4968354,36.2179622 L47.7864714,49.6873249 C47.7391135,50.0664118 47.549685,50.3744152 47.2181802,50.6113445 L33.5791907,58.5721289 C33.4134382,58.6669006 33.2240097,58.7142857 33.0108994,58.7142857 C32.7267524,58.7142857 32.4544489,58.6076691 32.1939808,58.3944328 L29.9208159,56.119923 C29.6129899,55.788222 29.5182757,55.4091408 29.6366703,54.9826681 L32.6557174,45.1738445 L22.6751027,35.1873249 L12.872079,38.2081583 C12.8010422,38.2318512 12.6944887,38.2436975 12.5524152,38.2436975 C12.2209103,38.2436975 11.9486068,38.1370809 11.7354965,37.9238445 L9.46233163,35.6493347 C9.05979,35.1991691 9.00059359,34.7371639 9.28474062,34.2633053 L17.2408178,20.6162465 C17.477607,20.2845455 17.7854284,20.0950049 18.1642911,20.047619 L31.6256896,19.3368347 C33.8988658,16.6358408 35.9825795,14.3258149 37.8768931,12.4066877 C42.32853,7.97610997 46.566993,4.91976798 50.5924093,3.23757003 C54.6178257,1.55537207 59.7205563,0.714285714 65.9007543,0.714285714 C66.2322592,0.714285714 66.516402,0.826825439 66.7531911,1.05190826 C66.9899803,1.27699109 67.1083732,1.54353254 67.1083732,1.85154062 Z M59.4285714,12.1428571 C59.4285714,11.1904714 59.0952414,10.3809557 58.4285714,9.71428571 C57.7619014,9.04761571 56.9523857,8.71428571 56,8.71428571 C55.0476143,8.71428571 54.2380986,9.04761571 53.5714286,9.71428571 C52.9047586,10.3809557 52.5714286,11.1904714 52.5714286,12.1428571 C52.5714286,13.0952429 52.9047586,13.9047586 53.5714286,14.5714286 C54.2380986,15.2380986 55.0476143,15.5714286 56,15.5714286 C56.9523857,15.5714286 57.7619014,15.2380986 58.4285714,14.5714286 C59.0952414,13.9047586 59.4285714,13.0952429 59.4285714,12.1428571 Z" id="" fill="#4094AA" sketch:type="MSShapeGroup"></path>
    </g>
</svg>