<?xml version="1.0" encoding="UTF-8" standalone="no"?>
<svg width="20px" height="18px" viewBox="0 0 20 18">
    <defs></defs>
    <g stroke="none" stroke-width="1" fill="none" fill-rule="evenodd">
        <path d="M18.1958705,5.08653846 C18.2042411,5.20192365 18.2084263,5.37499885 18.2084263,5.60576923 C18.2084263,6.67720316 18.0493878,7.7465606 17.7313058,8.81387363 C17.4132239,9.88118666 16.9298303,10.9052149 16.2811105,11.885989 C15.6323907,12.8667631 14.8602165,13.7341995 13.9645647,14.4883242 C13.0689129,15.2424488 11.9891246,15.8440912 10.7251674,16.2932692 C9.4612102,16.7424473 8.1093822,16.967033 6.66964286,16.967033 C4.40121634,16.967033 2.32534424,16.3695115 0.441964286,15.1744505 C0.734934501,15.2074177 1.06138213,15.2239011 1.42131696,15.2239011 C3.30469692,15.2239011 4.98297254,14.6552255 6.4561942,13.5178571 C5.57728355,13.5013735 4.79046106,13.2355795 4.09570313,12.720467 C3.40094519,12.2053546 2.92382942,11.5480809 2.66434152,10.7486264 C2.94057058,10.7898354 3.19586936,10.8104396 3.43024554,10.8104396 C3.79018037,10.8104396 4.14592458,10.7651103 4.49748884,10.6744505 C3.55998415,10.4848892 2.78362473,10.0254157 2.16838728,9.29601648 C1.55314983,8.56661723 1.24553571,7.71978504 1.24553571,6.75549451 L1.24553571,6.70604396 C1.81473499,7.01923234 2.42577799,7.18818669 3.07868304,7.21291209 C2.52622492,6.85027291 2.08677619,6.37637655 1.76032366,5.79120879 C1.43387114,5.20604103 1.27064732,4.57143199 1.27064732,3.88736264 C1.27064732,3.16208429 1.45479727,2.49038771 1.82310268,1.87225275 C2.83594256,3.10028087 4.06849162,4.08310071 5.52078683,4.82074176 C6.97308204,5.55838281 8.5278935,5.96840618 10.1852679,6.05082418 C10.1183032,5.7376358 10.0848214,5.43269379 10.0848214,5.13598901 C10.0848214,4.03158788 10.4803253,3.08997642 11.2713449,2.31112637 C12.0623644,1.53227633 13.0186886,1.14285714 14.140346,1.14285714 C15.3122268,1.14285714 16.2999402,1.56318261 17.1035156,2.40384615 C18.0159086,2.23076837 18.8738799,1.90934301 19.6774554,1.43956044 C19.367744,2.38736738 18.7734419,3.12087652 17.8945313,3.64010989 C18.672995,3.5576919 19.451447,3.35165 20.2299107,3.02197802 C19.669082,3.82967437 18.9910754,4.5178543 18.1958705,5.08653846 Z" id="twitter" fill="#4094AA"></path>
    </g>
</svg>