<svg width="10px" height="10px" viewBox="0 0 10 10">
    <defs>
     <g stroke="none" stroke-width="1" fill="none" fill-rule="evenodd">
        <path d="M9.76251605,5.90353261 L9.28112965,6.41304348 C9.11852721,6.58514579 8.92383511,6.67119565 8.6970475,6.67119565 C8.46598087,6.67119565 8.27342824,6.58514579 8.11938383,6.41304348 L6.23234917,4.42255435 L6.23234917,9.20516304 C6.23234917,9.44067147 6.1521189,9.63201919 5.99165597,9.77921196 C5.83119304,9.92640472 5.63757067,10 5.41078306,10 L4.58921694,10 C4.36242933,10 4.16880696,9.92640472 4.00834403,9.77921196 C3.8478811,9.63201919 3.76765083,9.44067147 3.76765083,9.20516304 L3.76765083,4.42255435 L1.88061617,6.41304348 C1.72657176,6.58514579 1.53401913,6.67119565 1.3029525,6.67119565 C1.07188588,6.67119565 0.879333248,6.58514579 0.725288832,6.41304348 L0.243902439,5.90353261 C0.0813,5.7314303 0,5.52762799 0,5.29211957 C0,5.05208213 0.0813,4.84601535 0.243902439,4.67391304 L4.42233633,0.251358696 C4.57210173,0.083785394 4.76465436,0 5,0 C5.23106662,0 5.42575873,0.083785394 5.58408216,0.251358696 L9.76251605,4.67391304 C9.92083947,4.85054436 10,5.05661114 10,5.29211957 C10,5.52309898 9.92083947,5.72690129 9.76251605,5.90353261 Z" id="up-arrow" class="up-arrow" fill="#000000"></path>
    </g>
    </defs>
</svg>