
<svg width="78px" height="58px" viewBox="0 0 78 58">
    <defs></defs>
    <g stroke="none" stroke-width="1" fill="none" fill-rule="evenodd">
        <path d="M44.0604839,32.6274237 L20.4001065,56.2878011 C19.5443506,57.143557 18.5035819,57.5714286 17.2777693,57.5714286 C16.0750853,57.5714286 15.0227525,57.143557 14.1207395,56.2878011 L10.4433201,52.5409964 C9.56443565,51.708369 9.125,50.6676004 9.125,49.4186592 C9.125,48.1928467 9.56443565,47.1405139 10.4433201,46.2616294 L34.0690049,22.6359447 C34.9710179,24.9025415 36.2951069,26.9089122 38.0413116,28.6551169 C39.7875163,30.4013217 41.793887,31.7254107 44.0604839,32.6274237 Z M21.7184267,47.1983306 C21.7184267,46.5969886 21.4987088,46.0766042 21.0592666,45.637162 C20.6198243,45.1977197 20.09944,44.9780019 19.498098,44.9780019 C18.896756,44.9780019 18.3763716,45.1977197 17.9369294,45.637162 C17.4974872,46.0766042 17.2777693,46.5969886 17.2777693,47.1983306 C17.2777693,47.7996726 17.4974872,48.3200569 17.9369294,48.7594992 C18.3763716,49.1989414 18.896756,49.4186592 19.498098,49.4186592 C20.09944,49.4186592 20.6198243,49.1989414 21.0592666,48.7594992 C21.4987088,48.3200569 21.7184267,47.7996726 21.7184267,47.1983306 Z M66.0556147,17.5361273 C66.0556147,18.4381403 65.7896405,19.6639345 65.2576841,21.2135466 C64.1706428,24.3127709 62.268349,26.8279618 59.5507456,28.7591949 C56.8331422,30.6904279 53.8438234,31.6560299 50.5826993,31.6560299 C46.3039196,31.6560299 42.6438831,30.1353513 39.6024802,27.0939484 C36.5610773,24.0525454 35.0403987,20.392509 35.0403987,16.1137292 C35.0403987,11.8349495 36.5610773,8.17491304 39.6024802,5.13351013 C42.6438831,2.09210722 46.3039196,0.571428571 50.5826993,0.571428571 C51.9241546,0.571428571 53.3291923,0.762236158 54.7978545,1.14385706 C56.2665168,1.52547795 57.5096571,2.06320843 58.5273128,2.7570646 C58.8973695,3.01147853 59.082395,3.33527323 59.082395,3.72845839 C59.082395,4.12164356 58.8973695,4.44543825 58.5273128,4.69985219 L48.3623707,10.5629076 L48.3623707,18.3340579 L55.0580493,22.0461699 C55.173692,21.9767843 56.0872556,21.4159256 57.7987675,20.3635771 C59.5102794,19.3112285 61.0772144,18.3745368 62.4996196,17.5534736 C63.9220248,16.7324105 64.7372935,16.3218851 64.9454504,16.3218851 C65.2923785,16.3218851 65.5641347,16.437526 65.7607273,16.6688114 C65.9573199,16.9000968 66.0556147,17.1891992 66.0556147,17.5361273 Z" id="wrench" fill="#4094AA"></path>
    </g>
</svg>